# xmcd
#
# Track frame offsets:
#	182
#	15942
#	28772
#
# Disc length: 595 seconds
#
# Revision: 0
# Processed by: cddbd v1.5.2PL0 Copyright (c) Steve Scherf et al.
# Submitted via: audiograbber 1.83.01
#
DISCID=15025103
DTITLE=Brooks and Dunn - My Maria
DYEAR=1900
DGENRE=
TTITLE0=My Maria
TTITLE1=Redneck Rhythm and Blues
TTITLE2=White Line Casanova
EXTD=
EXTT0=
EXTT1=
EXTT2=
PLAYORDER=
